<?xml version="1.0" encoding="UTF-8" standalone="no"?><!DOCTYPE svg PUBLIC "-//W3C//DTD SVG 1.1//EN" "http://www.w3.org/Graphics/SVG/1.1/DTD/svg11.dtd"><svg width="100%" height="100%" viewBox="0 0 48 48" version="1.1" xmlns="http://www.w3.org/2000/svg" xmlns:xlink="http://www.w3.org/1999/xlink" xml:space="preserve" xmlns:serif="http://www.serif.com/" style="fill-rule:evenodd;clip-rule:evenodd;stroke-linejoin:round;stroke-miterlimit:2;"><g transform="matrix(1,0,0,1,0,7.87561)"><g transform="matrix(0.268731,0,0,0.268731,-669.593,-582.641)"><path d="M2533.62,2249.35C2533.62,2249.35 2574.54,2174.55 2577.68,2168.82C2577.86,2168.48 2578.21,2168.26 2578.6,2168.26C2578.99,2168.26 2579.34,2168.47 2579.53,2168.81C2585.39,2179.41 2629.53,2259.01 2633.46,2266.19C2635.98,2270.78 2635.89,2276.36 2633.21,2280.86C2630.55,2285.36 2625.7,2288.12 2620.47,2288.12L2516.07,2288.12C2515.69,2288.12 2515.35,2287.92 2515.15,2287.6C2514.97,2287.28 2514.96,2286.88 2515.14,2286.55C2518.17,2281.01 2528.33,2262.44 2530.21,2259C2530.4,2258.66 2530.75,2258.45 2531.13,2258.45L2595.31,2258.45L2581.01,2232.72L2578.75,2228.65C2576.96,2231.91 2570.25,2244.17 2567.17,2249.79C2566.2,2251.56 2564.35,2252.66 2562.34,2252.66L2528.57,2252.66C2527.6,2252.66 2526.72,2253.18 2526.25,2254.03C2522.95,2259.99 2509.83,2283.68 2507.67,2287.58C2507.49,2287.91 2507.13,2288.12 2506.74,2288.12L2505.23,2288.12C2505.23,2288.12 2520.58,2260.26 2524.78,2252.63C2525.42,2251.44 2526.66,2250.72 2528.01,2250.72L2531.3,2250.72C2532.27,2250.72 2533.16,2250.18 2533.62,2249.35Z" style="fill:rgb(245,163,0);"/></g><g transform="matrix(1.01152,0,0,1.01152,-0.00349351,-0.120929)"><path d="M43.522,32C45.695,32 47.457,30.238 47.457,28.064C47.457,25.891 45.695,24.129 43.522,24.129C41.348,24.129 39.586,25.891 39.586,28.064C39.586,30.238 41.348,32 43.522,32Z" style="fill:rgb(120,134,148);fill-rule:nonzero;"/></g><g transform="matrix(0.268731,0,0,0.268731,-669.593,-582.642)"><path d="M2560.8,2199.63C2560.79,2199.64 2560.78,2199.66 2560.78,2199.68C2560.67,2199.87 2560.56,2200.08 2560.45,2200.27L2559.64,2201.74C2559.64,2201.74 2560.02,2201.06 2560.45,2200.27L2560.8,2199.63C2561,2199.33 2561.34,2199.13 2561.7,2199.13C2562.08,2199.13 2562.45,2199.34 2562.63,2199.67C2568.01,2209.36 2594.93,2257.76 2595.31,2258.45L2622.97,2258.45C2624.28,2258.45 2625.49,2257.76 2626.17,2256.64C2626.66,2255.8 2626.8,2254.8 2626.58,2253.87C2617.29,2237.08 2585.39,2179.42 2579.53,2168.81C2579.34,2168.48 2578.99,2168.27 2578.6,2168.26C2578.21,2168.26 2577.86,2168.48 2577.68,2168.82C2574.54,2174.56 2564.27,2193.3 2560.8,2199.63Z" style="fill:rgb(250,175,0);"/></g><g transform="matrix(1.01152,0,0,1.01152,-0.00349351,-0.120929)"><path d="M35.728,22.622C35.728,22.622 35.735,22.636 35.748,22.66C35.916,22.965 35.908,23.336 35.733,23.635C35.554,23.934 35.233,24.117 34.884,24.117L10.485,24.117C10.384,24.117 10.29,24.173 10.24,24.264C9.74,25.177 7.042,30.11 6.235,31.583C6.188,31.671 6.19,31.776 6.24,31.862C6.292,31.948 6.383,31.999 6.483,31.999L34.22,31.999C35.609,31.999 36.896,31.266 37.604,30.07C38.315,28.875 38.339,27.394 37.671,26.174C36.626,24.265 35.728,22.622 35.728,22.622Z" style="fill:rgb(255,191,0);"/></g><g transform="matrix(0.268731,0,0,0.268731,-669.593,-582.642)"><path d="M2505.24,2288.12C2497.75,2288.11 2491.68,2282.03 2491.68,2274.54L2491.68,2169.18C2491.68,2168.59 2492.15,2168.12 2492.73,2168.12L2538.73,2168.12C2539.92,2168.14 2540.88,2168.14 2542.37,2168.21C2553.62,2168.74 2563.63,2173.98 2570.47,2182L2533.63,2249.35C2533.17,2250.19 2532.27,2250.73 2531.31,2250.73L2528.02,2250.73C2526.67,2250.73 2525.43,2251.45 2524.78,2252.63C2520.59,2260.26 2505.28,2288.06 2505.24,2288.12ZM2523.74,2220.9L2537.06,2220.9C2543.03,2220.9 2547.88,2216.05 2547.88,2210.08C2547.88,2204.11 2543.03,2199.26 2537.06,2199.26L2523.74,2199.26C2523.15,2199.26 2522.68,2199.73 2522.68,2200.32L2522.68,2219.84C2522.68,2220.42 2523.15,2220.9 2523.74,2220.9Z" style="fill:rgb(120,134,148);fill-rule:nonzero;"/></g></g></svg>